# xmcd CD database file
#
# Track frame offsets:
#	150
#	9477
#	24199
#	39767
#	61093
#	81001
#	86329
#	97575
#	110110
#	122927
#	142985
#	147150
#	160991
#	176615
#
# Disc length: 2541 seconds
#
# Revision: 0
# Processed by: cddbd v1.5.2PL0 Copyright (c) Steve Scherf et al.
# Submitted via: CDex 1.70beta2
#
DISCID=a009eb0e
DTITLE=Gont Elchrodt - blues for company and other mostly true stories
DYEAR=2006
DGENRE=Blues
TTITLE0=Love Jones
TTITLE1=Sometimes My Lady
TTITLE2=That's No Lady (lyrics and Music by Lyle Lovett
TTITLE3=Lovin Gone
TTITLE4=Blues for Company
TTITLE5=Dance of the Butterflies
TTITLE6=Hey Miss Bessie (Lyrics and Music by Jimmy Rushing)
TTITLE7=Overcoat Pete
TTITLE8=Four Nights Drunk (Traditional)
TTITLE9=Ball of Ballynoor (Traditional)
TTITLE10=Interlude in G
TTITLE11=Greasy String (with apologies to TS Eliot)
TTITLE12=Fishin' Hole (Lyrics and Music by Jon Barbee)
TTITLE13=Classy Chassis (Original recorded in 1995 Pumphouse Blues Band)
EXTD=YEAR: 2006
EXTT0=
EXTT1=
EXTT2=
EXTT3=
EXTT4=
EXTT5=
EXTT6=
EXTT7=
EXTT8=
EXTT9=
EXTT10=
EXTT11=
EXTT12=
EXTT13=
PLAYORDER=
